<svg xmlns="http://www.w3.org/2000/svg" width="1200" viewBox="0 0 680 1110" font-family="Arial, sans-serif">
<defs>
  <marker id="arr" viewBox="0 0 10 10" refX="8" refY="5" markerWidth="5" markerHeight="5" orient="auto-start-reverse">
    <path d="M2 1L8 5L2 9" fill="none" stroke="context-stroke" stroke-width="1.5" stroke-linecap="round" stroke-linejoin="round"/>
  </marker>
</defs>

<rect width="680" height="1110" fill="#f9f6f0" rx="12"/>
<text x="340" y="26" font-size="15" font-weight="bold" fill="#7a2d00" text-anchor="middle">Wireframes — Raizes do Nordeste (mobile-first)</text>
<line x1="40" y1="36" x2="640" y2="36" stroke="#ccc" stroke-width="0.5"/>

<text x="100" y="58" font-size="11" fill="#888" text-anchor="middle">Tela 1 – Login</text>
<text x="340" y="58" font-size="11" fill="#888" text-anchor="middle">Tela 2 – Cadastro</text>
<text x="575" y="58" font-size="11" fill="#888" text-anchor="middle">Tela 3 – Politica LGPD</text>

<rect x="44" y="66" width="112" height="210" rx="10" fill="#f8f8f6" stroke="#bbb" stroke-width="1"/>
<rect x="44" y="66" width="112" height="14" rx="10" fill="#b54b00"/>
<rect x="44" y="72" width="112" height="8" fill="#b54b00"/>
<text x="100" y="76" font-size="7" fill="#fff" text-anchor="middle" font-weight="bold">Raizes do Nordeste</text>
<rect x="64" y="88" width="72" height="18" rx="4" fill="#e8ddd0"/>
<text x="100" y="100" font-size="8" fill="#b54b00" text-anchor="middle" font-weight="bold">Raizes do Nordeste</text>
<rect x="56" y="114" width="88" height="14" rx="3" fill="#fff" stroke="#ccc" stroke-width="0.5"/>
<text x="62" y="123" font-size="7" fill="#aaa">E-mail</text>
<rect x="56" y="132" width="88" height="14" rx="3" fill="#fff" stroke="#ccc" stroke-width="0.5"/>
<text x="62" y="141" font-size="7" fill="#aaa">Senha</text>
<rect x="56" y="152" width="88" height="14" rx="3" fill="#b54b00"/>
<text x="100" y="161" font-size="8" fill="#fff" text-anchor="middle" font-weight="bold">Entrar</text>
<text x="100" y="178" font-size="7" fill="#b54b00" text-anchor="middle" text-decoration="underline">Nao tem conta? Cadastre-se</text>
<rect x="80" y="268" width="40" height="3" rx="2" fill="#ccc"/>

<rect x="284" y="66" width="112" height="210" rx="10" fill="#f8f8f6" stroke="#bbb" stroke-width="1"/>
<rect x="284" y="66" width="112" height="14" rx="10" fill="#b54b00"/>
<rect x="284" y="72" width="112" height="8" fill="#b54b00"/>
<text x="340" y="76" font-size="7" fill="#fff" text-anchor="middle" font-weight="bold">Cadastro</text>
<rect x="296" y="88" width="88" height="13" rx="3" fill="#fff" stroke="#ccc" stroke-width="0.5"/>
<text x="302" y="97" font-size="7" fill="#aaa">Nome completo</text>
<rect x="296" y="105" width="88" height="13" rx="3" fill="#fff" stroke="#ccc" stroke-width="0.5"/>
<text x="302" y="114" font-size="7" fill="#aaa">E-mail</text>
<rect x="296" y="122" width="88" height="13" rx="3" fill="#fff" stroke="#ccc" stroke-width="0.5"/>
<text x="302" y="131" font-size="7" fill="#aaa">Senha</text>
<rect x="296" y="140" width="8" height="8" rx="1" fill="#fff" stroke="#b54b00" stroke-width="0.8"/>
<text x="308" y="147" font-size="6.5" fill="#555">Aceito a </text>
<text x="332" y="147" font-size="6.5" fill="#b54b00" text-decoration="underline">Politica de Privacidade</text>
<text x="308" y="155" font-size="6.5" fill="#555">(LGPD) *obrigatorio</text>
<rect x="296" y="162" width="88" height="13" rx="3" fill="#b54b00"/>
<text x="340" y="171" font-size="8" fill="#fff" text-anchor="middle" font-weight="bold">Cadastrar</text>
<text x="340" y="184" font-size="6.5" fill="#b54b00" text-anchor="middle" text-decoration="underline">Ja tenho conta</text>
<rect x="320" y="268" width="40" height="3" rx="2" fill="#ccc"/>

<rect x="519" y="66" width="112" height="210" rx="10" fill="#f8f8f6" stroke="#bbb" stroke-width="1"/>
<rect x="519" y="66" width="112" height="14" rx="10" fill="#b54b00"/>
<rect x="519" y="72" width="112" height="8" fill="#b54b00"/>
<text x="575" y="76" font-size="7" fill="#fff" text-anchor="middle" font-weight="bold">Politica de Privacidade</text>
<rect x="562" y="88" width="26" height="20" rx="4" fill="#e8ddd0"/>
<text x="527" y="119" font-size="6" fill="#777">Dados coletados: nome, e-mail,</text>
<text x="527" y="128" font-size="6" fill="#777">historico de pedidos.</text>
<text x="527" y="137" font-size="6" fill="#777">Finalidade: personalizar experiencia</text>
<text x="527" y="146" font-size="6" fill="#777">e programa de fidelidade.</text>
<text x="527" y="155" font-size="6" fill="#777">Base legal: Art. 7, I - LGPD.</text>
<text x="527" y="164" font-size="6" fill="#777">Exclusao: privacidade@raizes.com</text>
<rect x="539" y="172" width="72" height="12" rx="3" fill="#e8ddd0" stroke="#b54b00" stroke-width="0.5"/>
<text x="575" y="180" font-size="7" fill="#b54b00" text-anchor="middle">Voltar</text>
<rect x="555" y="268" width="40" height="3" rx="2" fill="#ccc"/>

<line x1="158" y1="172" x2="280" y2="172" stroke="#b54b00" stroke-width="0.8" stroke-dasharray="4 2" marker-end="url(#arr)"/>
<text x="218" y="167" font-size="7" fill="#b54b00" text-anchor="middle">cadastro</text>
<line x1="398" y1="151" x2="515" y2="151" stroke="#b54b00" stroke-width="0.8" stroke-dasharray="4 2" marker-end="url(#arr)"/>
<text x="456" y="146" font-size="7" fill="#b54b00" text-anchor="middle">politica LGPD</text>

<line x1="40" y1="302" x2="640" y2="302" stroke="#eee" stroke-width="0.5"/>
<text x="190" y="322" font-size="11" fill="#888" text-anchor="middle">Tela 4 – Cardapio</text>
<text x="510" y="322" font-size="11" fill="#888" text-anchor="middle">Tela 5 – Carrinho</text>

<rect x="100" y="330" width="180" height="330" rx="12" fill="#f8f8f6" stroke="#bbb" stroke-width="1"/>
<rect x="100" y="330" width="180" height="28" rx="12" fill="#b54b00"/>
<rect x="100" y="344" width="180" height="14" fill="#b54b00"/>
<text x="160" y="347" font-size="8" fill="#fff" font-weight="bold">Raizes do Nordeste</text>
<text x="266" y="341" font-size="7" fill="#fff" text-anchor="end">Ola, Ana</text>
<text x="266" y="350" font-size="7" fill="#ffcba0" text-anchor="end">⭐ 150 pts</text>
<rect x="110" y="363" width="160" height="14" rx="3" fill="#fff" stroke="#ddd" stroke-width="0.5"/>
<text x="116" y="373" font-size="7" fill="#555">Unidade: </text>
<text x="148" y="373" font-size="7" fill="#b54b00" font-weight="bold">Recife - Boa Vista</text>
<text x="264" y="373" font-size="8" fill="#aaa" text-anchor="end">▾</text>
<rect x="110" y="381" width="48" height="12" rx="2" fill="#b54b00"/>
<text x="134" y="390" font-size="7" fill="#fff" text-anchor="middle">Cardapio</text>
<rect x="162" y="381" width="50" height="12" rx="2" fill="#e8ddd0"/>
<text x="187" y="390" font-size="7" fill="#b54b00" text-anchor="middle">Pedidos</text>
<rect x="216" y="381" width="54" height="12" rx="2" fill="#e8ddd0"/>
<text x="243" y="390" font-size="7" fill="#b54b00" text-anchor="middle">Fidelidade</text>
<rect x="110" y="397" width="160" height="18" rx="3" fill="#fff3cd" stroke="#f0ad00" stroke-width="0.5"/>
<text x="116" y="409" font-size="7" fill="#7a5c00">Promo: Combo Cuscuz+Suco 20% off</text>
<rect x="110" y="419" width="32" height="11" rx="5" fill="#b54b00"/>
<text x="126" y="427" font-size="6.5" fill="#fff" text-anchor="middle">Todos</text>
<rect x="146" y="419" width="32" height="11" rx="5" fill="#fff" stroke="#b54b00" stroke-width="0.5"/>
<text x="162" y="427" font-size="6.5" fill="#b54b00" text-anchor="middle">Cafe</text>
<rect x="182" y="419" width="36" height="11" rx="5" fill="#fff" stroke="#b54b00" stroke-width="0.5"/>
<text x="200" y="427" font-size="6.5" fill="#b54b00" text-anchor="middle">Salgados</text>
<rect x="222" y="419" width="30" height="11" rx="5" fill="#fff" stroke="#b54b00" stroke-width="0.5"/>
<text x="237" y="427" font-size="6.5" fill="#b54b00" text-anchor="middle">Sucos</text>
<rect x="110" y="435" width="74" height="60" rx="5" fill="#fff" stroke="#eee" stroke-width="0.8"/>
<rect x="110" y="435" width="74" height="24" rx="5" fill="#f0e8e0"/>
<rect x="110" y="453" width="74" height="6" fill="#f0e8e0"/>
<text x="147" y="447" font-size="7" fill="#b54b00" text-anchor="middle" font-weight="bold">Cuscuz c/ Ovo</text>
<text x="147" y="469" font-size="6.5" fill="#999" text-anchor="middle">c/ manteiga</text>
<text x="116" y="480" font-size="8" fill="#b54b00" font-weight="bold">R$ 12,00</text>
<rect x="152" y="476" width="28" height="12" rx="3" fill="#b54b00"/>
<text x="166" y="484" font-size="7" fill="#fff" text-anchor="middle">+ Add</text>
<rect x="196" y="435" width="74" height="60" rx="5" fill="#fff" stroke="#eee" stroke-width="0.8"/>
<rect x="196" y="435" width="74" height="24" rx="5" fill="#f0e8e0"/>
<rect x="196" y="453" width="74" height="6" fill="#f0e8e0"/>
<text x="233" y="447" font-size="7" fill="#b54b00" text-anchor="middle" font-weight="bold">Tapioca</text>
<text x="233" y="469" font-size="6.5" fill="#999" text-anchor="middle">queijo coalho</text>
<text x="202" y="480" font-size="8" fill="#b54b00" font-weight="bold">R$ 15,00</text>
<rect x="238" y="476" width="28" height="12" rx="3" fill="#b54b00"/>
<text x="252" y="484" font-size="7" fill="#fff" text-anchor="middle">+ Add</text>
<rect x="110" y="500" width="74" height="60" rx="5" fill="#fff" stroke="#eee" stroke-width="0.8"/>
<rect x="110" y="500" width="74" height="20" rx="5" fill="#f0e8e0"/>
<rect x="110" y="514" width="74" height="6" fill="#f0e8e0"/>
<text x="147" y="514" font-size="7" fill="#b54b00" text-anchor="middle" font-weight="bold">Cafe Passado</text>
<text x="147" y="532" font-size="6.5" fill="#999" text-anchor="middle">coado na hora</text>
<text x="116" y="545" font-size="8" fill="#b54b00" font-weight="bold">R$ 5,00</text>
<rect x="152" y="541" width="28" height="12" rx="3" fill="#b54b00"/>
<text x="166" y="549" font-size="7" fill="#fff" text-anchor="middle">+ Add</text>
<rect x="196" y="500" width="74" height="60" rx="5" fill="#fff" stroke="#eee" stroke-width="0.8"/>
<rect x="196" y="500" width="74" height="14" rx="5" fill="#f0ad00"/>
<rect x="196" y="508" width="74" height="6" fill="#f0ad00"/>
<text x="233" y="510" font-size="6.5" fill="#7a5c00" text-anchor="middle" font-weight="bold">Especial Junino</text>
<text x="233" y="524" font-size="7" fill="#333" text-anchor="middle" font-weight="bold">Arrumadinho</text>
<text x="233" y="534" font-size="6.5" fill="#999" text-anchor="middle">feijao + charque</text>
<text x="202" y="545" font-size="8" fill="#b54b00" font-weight="bold">R$ 18,00</text>
<rect x="238" y="541" width="28" height="12" rx="3" fill="#b54b00"/>
<text x="252" y="549" font-size="7" fill="#fff" text-anchor="middle">+ Add</text>
<rect x="110" y="568" width="160" height="20" rx="10" fill="#b54b00"/>
<text x="190" y="581" font-size="7.5" fill="#fff" text-anchor="middle" font-weight="bold">Carrinho 2 itens | R$ 27,00</text>

<rect x="360" y="330" width="160" height="330" rx="12" fill="#f8f8f6" stroke="#bbb" stroke-width="1"/>
<rect x="360" y="330" width="160" height="24" rx="12" fill="#b54b00"/>
<rect x="360" y="344" width="160" height="10" fill="#b54b00"/>
<text x="440" y="344" font-size="8" fill="#fff" text-anchor="middle" font-weight="bold">Meu Carrinho</text>
<rect x="370" y="360" width="140" height="28" rx="4" fill="#fff" stroke="#eee" stroke-width="0.5"/>
<text x="376" y="372" font-size="7" fill="#333" font-weight="bold">Cuscuz c/ Ovo x2</text>
<text x="376" y="382" font-size="7" fill="#b54b00" font-weight="bold">R$ 24,00</text>
<rect x="480" y="363" width="22" height="14" rx="3" fill="#e74c3c"/>
<text x="491" y="372" font-size="7" fill="#fff" text-anchor="middle">X</text>
<rect x="370" y="393" width="140" height="28" rx="4" fill="#fff" stroke="#eee" stroke-width="0.5"/>
<text x="376" y="405" font-size="7" fill="#333" font-weight="bold">Cafe Passado x1</text>
<text x="376" y="415" font-size="7" fill="#b54b00" font-weight="bold">R$ 5,00</text>
<rect x="480" y="396" width="22" height="14" rx="3" fill="#e74c3c"/>
<text x="491" y="405" font-size="7" fill="#fff" text-anchor="middle">X</text>
<line x1="370" y1="428" x2="500" y2="428" stroke="#eee" stroke-width="0.5"/>
<text x="376" y="441" font-size="8" fill="#555">Total:</text>
<text x="498" y="441" font-size="10" fill="#b54b00" font-weight="bold" text-anchor="end">R$ 29,00</text>
<text x="376" y="456" font-size="7.5" fill="#333" font-weight="bold">Forma de pagamento</text>
<rect x="370" y="460" width="140" height="16" rx="3" fill="#fff" stroke="#ccc" stroke-width="0.5"/>
<text x="376" y="471" font-size="7" fill="#aaa">Selecione...</text>
<text x="504" y="471" font-size="8" fill="#aaa" text-anchor="end">▾</text>
<rect x="370" y="480" width="34" height="12" rx="6" fill="#e8ddd0" stroke="#b54b00" stroke-width="0.5"/>
<text x="387" y="488" font-size="6.5" fill="#b54b00" text-anchor="middle">Pix</text>
<rect x="408" y="480" width="44" height="12" rx="6" fill="#e8ddd0" stroke="#b54b00" stroke-width="0.5"/>
<text x="430" y="488" font-size="6.5" fill="#b54b00" text-anchor="middle">Credito</text>
<rect x="456" y="480" width="42" height="12" rx="6" fill="#e8ddd0" stroke="#b54b00" stroke-width="0.5"/>
<text x="477" y="488" font-size="6.5" fill="#b54b00" text-anchor="middle">Debito</text>
<rect x="370" y="498" width="140" height="18" rx="4" fill="#b54b00"/>
<text x="440" y="510" font-size="8" fill="#fff" text-anchor="middle" font-weight="bold">Finalizar Pedido</text>
<rect x="370" y="520" width="140" height="16" rx="4" fill="#aaa"/>
<text x="440" y="530" font-size="7.5" fill="#fff" text-anchor="middle">Voltar</text>

<line x1="282" y1="580" x2="360" y2="520" stroke="#b54b00" stroke-width="0.8" stroke-dasharray="4 2" marker-end="url(#arr)"/>
<text x="314" y="545" font-size="7" fill="#b54b00" text-anchor="middle">abre carrinho</text>

<line x1="40" y1="682" x2="640" y2="682" stroke="#eee" stroke-width="0.5"/>
<text x="100" y="702" font-size="11" fill="#888" text-anchor="middle">Tela 6 – Status</text>
<text x="340" y="702" font-size="11" fill="#888" text-anchor="middle">Tela 7 – Fidelidade</text>
<text x="575" y="702" font-size="11" fill="#888" text-anchor="middle">Tela 8 – Meus Pedidos</text>

<rect x="44" y="710" width="112" height="240" rx="10" fill="#f8f8f6" stroke="#bbb" stroke-width="1"/>
<rect x="44" y="710" width="112" height="18" rx="10" fill="#b54b00"/>
<rect x="44" y="720" width="112" height="8" fill="#b54b00"/>
<text x="100" y="723" font-size="7.5" fill="#fff" text-anchor="middle" font-weight="bold">Pedido Realizado!</text>
<text x="100" y="742" font-size="9" fill="#b54b00" text-anchor="middle" font-weight="bold">RN-482291</text>
<rect x="56" y="750" width="88" height="16" rx="3" fill="#e8f5e9" stroke="#2e7d32" stroke-width="0.8"/>
<rect x="56" y="750" width="4" height="16" rx="2" fill="#2e7d32"/>
<text x="66" y="761" font-size="7" fill="#2e7d32" font-weight="bold">Confirmado</text>
<rect x="56" y="771" width="88" height="16" rx="3" fill="#e8f5e9" stroke="#2e7d32" stroke-width="0.5"/>
<rect x="56" y="771" width="4" height="16" rx="2" fill="#2e7d32"/>
<text x="66" y="782" font-size="7" fill="#2e7d32" font-weight="bold">Em Preparo</text>
<rect x="56" y="792" width="88" height="16" rx="3" fill="#eee" stroke="#ddd" stroke-width="0.5"/>
<text x="66" y="803" font-size="7" fill="#aaa">Pronto</text>
<rect x="56" y="813" width="88" height="16" rx="3" fill="#eee" stroke="#ddd" stroke-width="0.5"/>
<text x="66" y="824" font-size="7" fill="#aaa">Retirado</text>
<text x="100" y="842" font-size="7" fill="#555" text-anchor="middle">Pedido em preparo!</text>
<rect x="60" y="848" width="80" height="13" rx="4" fill="#fff3cd" stroke="#f0ad00" stroke-width="0.5"/>
<text x="100" y="857" font-size="7" fill="#7a5c00" text-anchor="middle">+ 29 pontos adicionados!</text>
<rect x="60" y="866" width="80" height="14" rx="3" fill="#b54b00"/>
<text x="100" y="875" font-size="7.5" fill="#fff" text-anchor="middle" font-weight="bold">Novo Pedido</text>

<rect x="284" y="710" width="112" height="240" rx="10" fill="#f8f8f6" stroke="#bbb" stroke-width="1"/>
<rect x="284" y="710" width="112" height="18" rx="10" fill="#b54b00"/>
<rect x="284" y="720" width="112" height="8" fill="#b54b00"/>
<text x="310" y="722" font-size="6.5" fill="#ffcba0" text-anchor="middle">Cardapio</text>
<text x="340" y="722" font-size="7" fill="#fff" text-anchor="middle" font-weight="bold">Fidelidade</text>
<text x="370" y="722" font-size="6.5" fill="#ffcba0" text-anchor="middle">Pedidos</text>
<rect x="292" y="732" width="96" height="34" rx="6" fill="#b54b00"/>
<text x="340" y="745" font-size="7" fill="#ffcba0" text-anchor="middle">Seus pontos</text>
<text x="340" y="760" font-size="16" fill="#fff" text-anchor="middle" font-weight="bold">179</text>
<text x="292" y="775" font-size="6.5" fill="#777">R$ 1,00 = 1 ponto por compra</text>
<text x="292" y="787" font-size="7.5" fill="#333" font-weight="bold">Recompensas</text>
<rect x="292" y="792" width="96" height="22" rx="3" fill="#fff" stroke="#eee" stroke-width="0.5"/>
<text x="298" y="802" font-size="7" fill="#333" font-weight="bold">Suco Gratis</text>
<text x="298" y="811" font-size="6.5" fill="#aaa">100 pts</text>
<rect x="356" y="795" width="28" height="14" rx="3" fill="#b54b00"/>
<text x="370" y="804" font-size="6.5" fill="#fff" text-anchor="middle">Resgatar</text>
<rect x="292" y="818" width="96" height="22" rx="3" fill="#fff" stroke="#eee" stroke-width="0.5"/>
<text x="298" y="828" font-size="7" fill="#333" font-weight="bold">Tapioca Gratis</text>
<text x="298" y="837" font-size="6.5" fill="#aaa">200 pts</text>
<rect x="356" y="821" width="28" height="14" rx="3" fill="#b54b00"/>
<text x="370" y="830" font-size="6.5" fill="#fff" text-anchor="middle">Resgatar</text>
<rect x="292" y="844" width="96" height="22" rx="3" fill="#fff" stroke="#eee" stroke-width="0.5"/>
<text x="298" y="854" font-size="7" fill="#333" font-weight="bold">Cafe da Manha</text>
<text x="298" y="863" font-size="6.5" fill="#aaa">350 pts</text>
<rect x="356" y="847" width="28" height="14" rx="3" fill="#ddd"/>
<text x="370" y="856" font-size="6.5" fill="#aaa" text-anchor="middle">Resgatar</text>
<text x="292" y="876" font-size="6" fill="#e74c3c">Pontos insuficientes para Cafe</text>

<rect x="519" y="710" width="112" height="240" rx="10" fill="#f8f8f6" stroke="#bbb" stroke-width="1"/>
<rect x="519" y="710" width="112" height="18" rx="10" fill="#b54b00"/>
<rect x="519" y="720" width="112" height="8" fill="#b54b00"/>
<text x="551" y="722" font-size="6.5" fill="#ffcba0" text-anchor="middle">Cardapio</text>
<text x="575" y="722" font-size="7" fill="#fff" text-anchor="middle" font-weight="bold">Pedidos</text>
<text x="602" y="722" font-size="6.5" fill="#ffcba0" text-anchor="middle">Fidelidade</text>
<rect x="527" y="732" width="96" height="42" rx="4" fill="#fff" stroke="#eee" stroke-width="0.5"/>
<text x="533" y="743" font-size="7" fill="#333" font-weight="bold">RN-482291</text>
<rect x="584" y="735" width="34" height="10" rx="4" fill="#e8f5e9" stroke="#2e7d32" stroke-width="0.5"/>
<text x="601" y="742" font-size="6" fill="#2e7d32" text-anchor="middle">Pronto</text>
<text x="533" y="753" font-size="6.5" fill="#999">Cuscuz x2, Cafe x1</text>
<text x="533" y="762" font-size="7" fill="#b54b00" font-weight="bold">R$ 29,00</text>
<text x="617" y="762" font-size="6" fill="#aaa" text-anchor="end">02/06/25</text>
<rect x="527" y="779" width="96" height="42" rx="4" fill="#fff" stroke="#eee" stroke-width="0.5"/>
<text x="533" y="790" font-size="7" fill="#333" font-weight="bold">RN-397104</text>
<rect x="580" y="782" width="40" height="10" rx="4" fill="#e8f5e9" stroke="#2e7d32" stroke-width="0.5"/>
<text x="600" y="789" font-size="6" fill="#2e7d32" text-anchor="middle">Retirado</text>
<text x="533" y="800" font-size="6.5" fill="#999">Tapioca x1, Suco x1</text>
<text x="533" y="809" font-size="7" fill="#b54b00" font-weight="bold">R$ 24,00</text>
<text x="617" y="809" font-size="6" fill="#aaa" text-anchor="end">01/06/25</text>
<rect x="527" y="826" width="96" height="42" rx="4" fill="#fff" stroke="#eee" stroke-width="0.5"/>
<text x="533" y="837" font-size="7" fill="#333" font-weight="bold">RN-204873</text>
<rect x="580" y="829" width="40" height="10" rx="4" fill="#e8f5e9" stroke="#2e7d32" stroke-width="0.5"/>
<text x="600" y="836" font-size="6" fill="#2e7d32" text-anchor="middle">Retirado</text>
<text x="533" y="847" font-size="6.5" fill="#999">Cafe Manha x1</text>
<text x="533" y="856" font-size="7" fill="#b54b00" font-weight="bold">R$ 25,00</text>
<text x="617" y="856" font-size="6" fill="#aaa" text-anchor="end">30/05/25</text>

<line x1="40" y1="968" x2="640" y2="968" stroke="#eee" stroke-width="0.5"/>
<text x="340" y="985" font-size="11" fill="#888" text-anchor="middle">Legenda de componentes</text>
<rect x="50" y="996" width="60" height="14" rx="3" fill="#b54b00"/>
<text x="80" y="1006" font-size="7" fill="#fff" text-anchor="middle">Botao primario</text>
<rect x="130" y="996" width="60" height="14" rx="3" fill="#fff" stroke="#b54b00" stroke-width="0.8"/>
<text x="160" y="1006" font-size="7" fill="#b54b00" text-anchor="middle">Botao sec.</text>
<rect x="210" y="996" width="80" height="14" rx="3" fill="#fff" stroke="#ccc" stroke-width="0.5"/>
<text x="220" y="1006" font-size="7" fill="#aaa">Campo de texto</text>
<rect x="310" y="996" width="12" height="12" rx="2" fill="#fff" stroke="#b54b00" stroke-width="0.8"/>
<text x="330" y="1006" font-size="7" fill="#555">Checkbox LGPD</text>
<rect x="400" y="996" width="50" height="14" rx="7" fill="#e8f5e9" stroke="#2e7d32" stroke-width="0.5"/>
<text x="425" y="1006" font-size="7" fill="#2e7d32" text-anchor="middle">Badge status</text>
<rect x="470" y="996" width="80" height="14" rx="3" fill="#fff3cd" stroke="#f0ad00" stroke-width="0.5"/>
<text x="510" y="1006" font-size="7" fill="#7a5c00" text-anchor="middle">Banner promo</text>
<rect x="50" y="1018" width="50" height="14" rx="7" fill="#b54b00"/>
<text x="75" y="1028" font-size="7" fill="#fff" text-anchor="middle">Filtro ativo</text>
<rect x="120" y="1018" width="60" height="14" rx="7" fill="#fff" stroke="#b54b00" stroke-width="0.5"/>
<text x="150" y="1028" font-size="7" fill="#b54b00" text-anchor="middle">Filtro inativo</text>
<rect x="200" y="1018" width="90" height="14" rx="7" fill="#b54b00"/>
<text x="245" y="1028" font-size="7" fill="#fff" text-anchor="middle">Carrinho flutuante</text>
<rect x="310" y="1018" width="70" height="14" rx="3" fill="#e8f5e9"/>
<rect x="310" y="1018" width="3" height="14" rx="1" fill="#2e7d32"/>
<text x="320" y="1028" font-size="7" fill="#2e7d32">Step ativo</text>
<rect x="400" y="1018" width="70" height="14" rx="3" fill="#eee"/>
<text x="420" y="1028" font-size="7" fill="#aaa">Step inativo</text>
<rect x="490" y="1018" width="14" height="14" rx="3" fill="#f0ad00"/>
<text x="510" y="1028" font-size="7" fill="#7a5c00">Junino badge</text>
<line x1="40" y1="1048" x2="640" y2="1048" stroke="#eee" stroke-width="0.5"/>
<text x="340" y="1065" font-size="9" fill="#aaa" text-anchor="middle">Fluxo: Login → Cadastro → Cardapio → Carrinho → Status → Fidelidade / Pedidos</text>
<line x1="60" y1="1078" x2="80" y2="1078" stroke="#b54b00" stroke-width="1" marker-end="url(#arr)"/>
<text x="92" y="1082" font-size="8" fill="#555">Login</text>
<line x1="118" y1="1078" x2="138" y2="1078" stroke="#b54b00" stroke-width="1" marker-end="url(#arr)"/>
<text x="148" y="1082" font-size="8" fill="#555">Cadastro</text>
<line x1="186" y1="1078" x2="206" y2="1078" stroke="#b54b00" stroke-width="1" marker-end="url(#arr)"/>
<text x="214" y="1082" font-size="8" fill="#555">Cardapio</text>
<line x1="254" y1="1078" x2="274" y2="1078" stroke="#b54b00" stroke-width="1" marker-end="url(#arr)"/>
<text x="280" y="1082" font-size="8" fill="#555">Carrinho</text>
<line x1="320" y1="1078" x2="340" y2="1078" stroke="#b54b00" stroke-width="1" marker-end="url(#arr)"/>
<text x="346" y="1082" font-size="8" fill="#555">Status</text>
<line x1="376" y1="1078" x2="396" y2="1078" stroke="#b54b00" stroke-width="1" marker-end="url(#arr)"/>
<text x="402" y="1082" font-size="8" fill="#555">Fidelidade</text>
<line x1="448" y1="1078" x2="468" y2="1078" stroke="#b54b00" stroke-width="1" marker-end="url(#arr)"/>
<text x="472" y="1082" font-size="8" fill="#555">Pedidos</text>
<text x="340" y="1100" font-size="9" fill="#aaa" text-anchor="middle">Mobile-first • responsivo via CSS Grid/Flexbox</text>
</svg>
